<?xml version="1.0" standalone="no"?><!DOCTYPE svg PUBLIC "-//W3C//DTD SVG 1.1//EN" "http://www.w3.org/Graphics/SVG/1.1/DTD/svg11.dtd"><svg class="gb_We" focusable="false" viewBox="0 0 24 24" version="1.1" xmlns="http://www.w3.org/2000/svg" xmlns:xlink="http://www.w3.org/1999/xlink" style="border-bottom-color:rgb(95, 99, 104);border-left-color:rgb(95, 99, 104);border-right-color:rgb(95, 99, 104);border-top-color:rgb(95, 99, 104);color:rgb(95, 99, 104);cursor:pointer;font-family:Roboto, RobotoDraft, Arial, sans-serif;font-size:13px;height:24px;outline-color:rgb(95, 99, 104);text-decoration:none solid rgb(95, 99, 104);text-decoration-color:rgb(95, 99, 104);white-space:nowrap;width:24px;column-rule-color:rgb(95, 99, 104);perspective-origin:12px 12px;-webkit-text-emphasis-color:rgb(95, 99, 104);-webkit-text-fill-color:rgb(95, 99, 104);-webkit-text-stroke-color:rgb(95, 99, 104);transform-origin:12px 12px;user-select:none;fill:rgb(95, 99, 104);caret-color:rgb(95, 99, 104);"><path d="M6,8c1.1,0 2,-0.9 2,-2s-0.9,-2 -2,-2 -2,0.9 -2,2 0.9,2 2,2zM12,20c1.1,0 2,-0.9 2,-2s-0.9,-2 -2,-2 -2,0.9 -2,2 0.9,2 2,2zM6,20c1.1,0 2,-0.9 2,-2s-0.9,-2 -2,-2 -2,0.9 -2,2 0.9,2 2,2zM6,14c1.1,0 2,-0.9 2,-2s-0.9,-2 -2,-2 -2,0.9 -2,2 0.9,2 2,2zM12,14c1.1,0 2,-0.9 2,-2s-0.9,-2 -2,-2 -2,0.9 -2,2 0.9,2 2,2zM16,6c0,1.1 0.9,2 2,2s2,-0.9 2,-2 -0.9,-2 -2,-2 -2,0.9 -2,2zM12,8c1.1,0 2,-0.9 2,-2s-0.9,-2 -2,-2 -2,0.9 -2,2 0.9,2 2,2zM18,14c1.1,0 2,-0.9 2,-2s-0.9,-2 -2,-2 -2,0.9 -2,2 0.9,2 2,2zM18,20c1.1,0 2,-0.9 2,-2s-0.9,-2 -2,-2 -2,0.9 -2,2 0.9,2 2,2z" style="border-bottom-color:rgb(95, 99, 104);border-left-color:rgb(95, 99, 104);border-right-color:rgb(95, 99, 104);border-top-color:rgb(95, 99, 104);color:rgb(95, 99, 104);cursor:pointer;font-family:Roboto, RobotoDraft, Arial, sans-serif;font-size:13px;height:auto;outline-color:rgb(95, 99, 104);overflow-x:visible;overflow-y:visible;text-decoration:none solid rgb(95, 99, 104);text-decoration-color:rgb(95, 99, 104);white-space:nowrap;width:auto;column-rule-color:rgb(95, 99, 104);perspective-origin:0px 0px;-webkit-text-emphasis-color:rgb(95, 99, 104);-webkit-text-fill-color:rgb(95, 99, 104);-webkit-text-stroke-color:rgb(95, 99, 104);transform-origin:0px 0px;user-select:none;fill:rgb(95, 99, 104);d:path(&quot;M 6 8 C 7.1 8 8 7.1 8 6 S 7.1 4 6 4 S 4 4.9 4 6 S 4.9 8 6 8 Z M 12 20 C 13.1 20 14 19.1 14 18 S 13.1 16 12 16 S 10 16.9 10 18 S 10.9 20 12 20 Z M 6 20 C 7.1 20 8 19.1 8 18 S 7.1 16 6 16 S 4 16.9 4 18 S 4.9 20 6 20 Z M 6 14 C 7.1 14 8 13.1 8 12 S 7.1 10 6 10 S 4 10.9 4 12 S 4.9 14 6 14 Z M 12 14 C 13.1 14 14 13.1 14 12 S 13.1 10 12 10 S 10 10.9 10 12 S 10.9 14 12 14 Z M 16 6 C 16 7.1 16.9 8 18 8 S 20 7.1 20 6 S 19.1 4 18 4 S 16 4.9 16 6 Z M 12 8 C 13.1 8 14 7.1 14 6 S 13.1 4 12 4 S 10 4.9 10 6 S 10.9 8 12 8 Z M 18 14 C 19.1 14 20 13.1 20 12 S 19.1 10 18 10 S 16 10.9 16 12 S 16.9 14 18 14 Z M 18 20 C 19.1 20 20 19.1 20 18 S 19.1 16 18 16 S 16 16.9 16 18 S 16.9 20 18 20 Z&quot;);caret-color:rgb(95, 99, 104);"/></svg>