<?xml version="1.0" standalone="no"?><!DOCTYPE svg PUBLIC "-//W3C//DTD SVG 1.1//EN" "http://www.w3.org/Graphics/SVG/1.1/DTD/svg11.dtd"><svg focusable="false" viewBox="0 0 24 24" version="1.1" xmlns="http://www.w3.org/2000/svg" xmlns:xlink="http://www.w3.org/1999/xlink" style="border-bottom-color:rgb(95, 99, 104);border-left-color:rgb(95, 99, 104);border-right-color:rgb(95, 99, 104);border-top-color:rgb(95, 99, 104);color:rgb(95, 99, 104);cursor:pointer;display:block;font-family:Roboto, arial, sans-serif;font-size:13px;height:16px;line-height:16px;outline-color:rgb(95, 99, 104);text-decoration:none solid rgb(95, 99, 104);text-decoration-color:rgb(95, 99, 104);white-space:nowrap;width:16px;column-rule-color:rgb(95, 99, 104);perspective-origin:8px 8px;-webkit-text-emphasis-color:rgb(95, 99, 104);-webkit-text-fill-color:rgb(95, 99, 104);-webkit-text-stroke-color:rgb(95, 99, 104);transform-origin:8px 8px;user-select:none;fill:rgb(95, 99, 104);caret-color:rgb(95, 99, 104);"><path d="M14 13l4 5H6l4-4 1.79 1.78L14 13zm-6.01-2.99A2 2 0 0 0 8 6a2 2 0 0 0-.01 4.01zM22 5v14a3 3 0 0 1-3 2.99H5c-1.64 0-3-1.36-3-3V5c0-1.64 1.36-3 3-3h14c1.65 0 3 1.36 3 3zm-2.01 0a1 1 0 0 0-1-1H5a1 1 0 0 0-1 1v14a1 1 0 0 0 1 1h7v-.01h7a1 1 0 0 0 1-1V5z" style="border-bottom-color:rgb(95, 99, 104);border-left-color:rgb(95, 99, 104);border-right-color:rgb(95, 99, 104);border-top-color:rgb(95, 99, 104);color:rgb(95, 99, 104);cursor:pointer;font-family:Roboto, arial, sans-serif;font-size:13px;height:auto;line-height:16px;outline-color:rgb(95, 99, 104);overflow-x:visible;overflow-y:visible;text-decoration:none solid rgb(95, 99, 104);text-decoration-color:rgb(95, 99, 104);white-space:nowrap;width:auto;column-rule-color:rgb(95, 99, 104);perspective-origin:0px 0px;-webkit-text-emphasis-color:rgb(95, 99, 104);-webkit-text-fill-color:rgb(95, 99, 104);-webkit-text-stroke-color:rgb(95, 99, 104);transform-origin:0px 0px;user-select:none;fill:rgb(95, 99, 104);d:path(&quot;M 14 13 L 18 18 H 6 L 10 14 L 11.79 15.78 L 14 13 Z M 7.99 10.01 A 2 2 0 0 0 8 6 A 2 2 0 0 0 7.99 10.01 Z M 22 5 V 19 A 3 3 0 0 1 19 21.99 H 5 C 3.36 21.99 2 20.63 2 18.99 V 5 C 2 3.36 3.36 2 5 2 H 19 C 20.65 2 22 3.36 22 5 Z M 19.99 5 A 1 1 0 0 0 18.99 4 H 5 A 1 1 0 0 0 4 5 V 19 A 1 1 0 0 0 5 20 H 12 V 19.99 H 19 A 1 1 0 0 0 20 18.99 V 5 Z&quot;);caret-color:rgb(95, 99, 104);"/></svg>