<?xml version="1.0" standalone="no"?><!DOCTYPE svg PUBLIC "-//W3C//DTD SVG 1.1//EN" "http://www.w3.org/Graphics/SVG/1.1/DTD/svg11.dtd"><svg focusable="false" viewBox="0 0 16 16" version="1.1" xmlns="http://www.w3.org/2000/svg" xmlns:xlink="http://www.w3.org/1999/xlink" style="border-bottom-color:rgb(95, 99, 104);border-left-color:rgb(95, 99, 104);border-right-color:rgb(95, 99, 104);border-top-color:rgb(95, 99, 104);color:rgb(95, 99, 104);cursor:pointer;display:block;font-size:13px;height:16px;line-height:16px;outline-color:rgb(95, 99, 104);text-decoration:none solid rgb(95, 99, 104);text-decoration-color:rgb(95, 99, 104);white-space:nowrap;width:16px;column-rule-color:rgb(95, 99, 104);perspective-origin:8px 8px;-webkit-text-emphasis-color:rgb(95, 99, 104);-webkit-text-fill-color:rgb(95, 99, 104);-webkit-text-stroke-color:rgb(95, 99, 104);transform-origin:8px 8px;user-select:none;fill:rgb(95, 99, 104);caret-color:rgb(95, 99, 104);"><path d="M7.50302273,-6.81818182e-05 C10.5930227,-6.81818182e-05 13.0052955,2.48720455 13.0052955,5.42720455 C13.0052955,7.76379545 11.8748409,9.12061364 10.7443864,10.4774318 C10.2909773,11.0051591 9.83893182,11.6078864 9.38688636,12.2112955 C8.93484091,12.8140227 8.63347727,13.7187955 8.40711364,14.1708409 C8.18143182,14.6228864 8.03006818,14.9999318 7.50302273,14.9999318 C6.97461364,14.9999318 6.82461364,14.6228864 6.59825,14.1708409 C6.37188636,13.7187955 6.07052273,12.8140227 5.61847727,12.2112955 C5.16575,11.6078864 4.71370455,11.0051591 4.26165909,10.4774318 C3.13120455,9.12061364 2.00006818,7.76379545 2.00006818,5.42720455 C2.00006818,2.48720455 4.41165909,-6.81818182e-05 7.50302273,-6.81818182e-05 Z M7.50302273,1.36356818 C5.22029545,1.36356818 3.36370455,3.18606818 3.36370455,5.42720455 C3.36370455,7.27015909 4.22211364,8.29970455 5.30893182,9.60402273 C5.77734091,10.1508409 6.25120455,10.7822045 6.70938636,11.3931136 C7.04893182,11.8458409 7.30461364,12.3831136 7.50302273,12.8378864 C7.70075,12.3831136 7.95643182,11.8458409 8.29597727,11.3931136 C8.75484091,10.7822045 9.22734091,10.1508409 9.70870455,9.58970455 C10.7825682,8.29970455 11.6416591,7.27015909 11.6416591,5.42720455 C11.6416591,3.18606818 9.78438636,1.36356818 7.50302273,1.36356818 Z M7.50275,4.09793182 C8.23638636,4.09793182 8.83161364,4.69315909 8.83161364,5.42679545 C8.83161364,6.16111364 8.23638636,6.75634091 7.50275,6.75634091 C6.76843182,6.75634091 6.17320455,6.16111364 6.17320455,5.42679545 C6.17320455,4.69315909 6.76843182,4.09793182 7.50275,4.09793182 Z" style="border-bottom-color:rgb(95, 99, 104);border-left-color:rgb(95, 99, 104);border-right-color:rgb(95, 99, 104);border-top-color:rgb(95, 99, 104);color:rgb(95, 99, 104);cursor:pointer;font-size:13px;height:auto;line-height:16px;outline-color:rgb(95, 99, 104);overflow-x:visible;overflow-y:visible;text-decoration:none solid rgb(95, 99, 104);text-decoration-color:rgb(95, 99, 104);white-space:nowrap;width:auto;column-rule-color:rgb(95, 99, 104);perspective-origin:0px 0px;-webkit-text-emphasis-color:rgb(95, 99, 104);-webkit-text-fill-color:rgb(95, 99, 104);-webkit-text-stroke-color:rgb(95, 99, 104);transform-origin:0px 0px;user-select:none;fill:rgb(95, 99, 104);d:path(&quot;M 7.50302 -0.0000681818 C 10.593 -0.0000681818 13.0053 2.4872 13.0053 5.4272 C 13.0053 7.7638 11.8748 9.12061 10.7444 10.4774 C 10.291 11.0052 9.83893 11.6079 9.38689 12.2113 C 8.93484 12.814 8.63348 13.7188 8.40711 14.1708 C 8.18143 14.6229 8.03007 14.9999 7.50302 14.9999 C 6.97461 14.9999 6.82461 14.6229 6.59825 14.1708 C 6.37189 13.7188 6.07052 12.814 5.61848 12.2113 C 5.16575 11.6079 4.7137 11.0052 4.26166 10.4774 C 3.1312 9.12061 2.00007 7.7638 2.00007 5.4272 C 2.00007 2.4872 4.41166 -0.0000681818 7.50302 -0.0000681818 Z M 7.50302 1.36357 C 5.2203 1.36357 3.3637 3.18607 3.3637 5.4272 C 3.3637 7.27016 4.22211 8.2997 5.30893 9.60402 C 5.77734 10.1508 6.2512 10.7822 6.70939 11.3931 C 7.04893 11.8458 7.30461 12.3831 7.50302 12.8379 C 7.70075 12.3831 7.95643 11.8458 8.29598 11.3931 C 8.75484 10.7822 9.22734 10.1508 9.7087 9.5897 C 10.7826 8.2997 11.6417 7.27016 11.6417 5.4272 C 11.6417 3.18607 9.78439 1.36357 7.50302 1.36357 Z M 7.50275 4.09793 C 8.23639 4.09793 8.83161 4.69316 8.83161 5.4268 C 8.83161 6.16111 8.23639 6.75634 7.50275 6.75634 C 6.76843 6.75634 6.1732 6.16111 6.1732 5.4268 C 6.1732 4.69316 6.76843 4.09793 7.50275 4.09793 Z&quot;);caret-color:rgb(95, 99, 104);"/></svg>