<?xml version="1.0" standalone="no"?><!DOCTYPE svg PUBLIC "-//W3C//DTD SVG 1.1//EN" "http://www.w3.org/Graphics/SVG/1.1/DTD/svg11.dtd"><svg focusable="false" viewBox="0 0 24 24" version="1.1" xmlns="http://www.w3.org/2000/svg" xmlns:xlink="http://www.w3.org/1999/xlink" style="border-bottom-color:rgb(95, 99, 104);border-left-color:rgb(95, 99, 104);border-right-color:rgb(95, 99, 104);border-top-color:rgb(95, 99, 104);color:rgb(95, 99, 104);cursor:pointer;display:block;font-family:Roboto, arial, sans-serif;font-size:13px;height:16px;line-height:16px;outline-color:rgb(95, 99, 104);text-decoration:none solid rgb(95, 99, 104);text-decoration-color:rgb(95, 99, 104);white-space:nowrap;width:16px;column-rule-color:rgb(95, 99, 104);perspective-origin:8px 8px;-webkit-text-emphasis-color:rgb(95, 99, 104);-webkit-text-fill-color:rgb(95, 99, 104);-webkit-text-stroke-color:rgb(95, 99, 104);transform-origin:8px 8px;user-select:none;fill:rgb(95, 99, 104);caret-color:rgb(95, 99, 104);"><path d="M12 8c1.1 0 2-.9 2-2s-.9-2-2-2-2 .9-2 2 .9 2 2 2zm0 2c-1.1 0-2 .9-2 2s.9 2 2 2 2-.9 2-2-.9-2-2-2zm0 6c-1.1 0-2 .9-2 2s.9 2 2 2 2-.9 2-2-.9-2-2-2z" style="border-bottom-color:rgb(95, 99, 104);border-left-color:rgb(95, 99, 104);border-right-color:rgb(95, 99, 104);border-top-color:rgb(95, 99, 104);color:rgb(95, 99, 104);cursor:pointer;font-family:Roboto, arial, sans-serif;font-size:13px;height:auto;line-height:16px;outline-color:rgb(95, 99, 104);overflow-x:visible;overflow-y:visible;text-decoration:none solid rgb(95, 99, 104);text-decoration-color:rgb(95, 99, 104);white-space:nowrap;width:auto;column-rule-color:rgb(95, 99, 104);perspective-origin:0px 0px;-webkit-text-emphasis-color:rgb(95, 99, 104);-webkit-text-fill-color:rgb(95, 99, 104);-webkit-text-stroke-color:rgb(95, 99, 104);transform-origin:0px 0px;user-select:none;fill:rgb(95, 99, 104);d:path(&quot;M 12 8 C 13.1 8 14 7.1 14 6 S 13.1 4 12 4 S 10 4.9 10 6 S 10.9 8 12 8 Z M 12 10 C 10.9 10 10 10.9 10 12 S 10.9 14 12 14 S 14 13.1 14 12 S 13.1 10 12 10 Z M 12 16 C 10.9 16 10 16.9 10 18 S 10.9 20 12 20 S 14 19.1 14 18 S 13.1 16 12 16 Z&quot;);caret-color:rgb(95, 99, 104);"/></svg>