<?xml version="1.0" standalone="no"?><!DOCTYPE svg PUBLIC "-//W3C//DTD SVG 1.1//EN" "http://www.w3.org/Graphics/SVG/1.1/DTD/svg11.dtd"><svg focusable="false" viewBox="0 0 24 24" version="1.1" xmlns="http://www.w3.org/2000/svg" xmlns:xlink="http://www.w3.org/1999/xlink" style="border-bottom-color:rgb(95, 99, 104);border-left-color:rgb(95, 99, 104);border-right-color:rgb(95, 99, 104);border-top-color:rgb(95, 99, 104);color:rgb(95, 99, 104);cursor:pointer;display:block;font-family:Roboto, arial, sans-serif;font-size:13px;height:16px;line-height:16px;outline-color:rgb(95, 99, 104);text-decoration:none solid rgb(95, 99, 104);text-decoration-color:rgb(95, 99, 104);white-space:nowrap;width:16px;column-rule-color:rgb(95, 99, 104);perspective-origin:8px 8px;-webkit-text-emphasis-color:rgb(95, 99, 104);-webkit-text-fill-color:rgb(95, 99, 104);-webkit-text-stroke-color:rgb(95, 99, 104);transform-origin:8px 8px;user-select:none;fill:rgb(95, 99, 104);caret-color:rgb(95, 99, 104);"><path d="M12 11h6v2h-6v-2zm-6 6h12v-2H6v2zm0-4h4V7H6v6zm16-7.22v12.44c0 1.54-1.34 2.78-3 2.78H5c-1.64 0-3-1.25-3-2.78V5.78C2 4.26 3.36 3 5 3h14c1.64 0 3 1.25 3 2.78zM19.99 12V5.78c0-.42-.46-.78-1-.78H5c-.54 0-1 .36-1 .78v12.44c0 .42.46.78 1 .78h14c.54 0 1-.36 1-.78V12zM12 9h6V7h-6v2z" style="border-bottom-color:rgb(95, 99, 104);border-left-color:rgb(95, 99, 104);border-right-color:rgb(95, 99, 104);border-top-color:rgb(95, 99, 104);color:rgb(95, 99, 104);cursor:pointer;font-family:Roboto, arial, sans-serif;font-size:13px;height:auto;line-height:16px;outline-color:rgb(95, 99, 104);overflow-x:visible;overflow-y:visible;text-decoration:none solid rgb(95, 99, 104);text-decoration-color:rgb(95, 99, 104);white-space:nowrap;width:auto;column-rule-color:rgb(95, 99, 104);perspective-origin:0px 0px;-webkit-text-emphasis-color:rgb(95, 99, 104);-webkit-text-fill-color:rgb(95, 99, 104);-webkit-text-stroke-color:rgb(95, 99, 104);transform-origin:0px 0px;user-select:none;fill:rgb(95, 99, 104);d:path(&quot;M 12 11 H 18 V 13 H 12 V 11 Z M 6 17 H 18 V 15 H 6 V 17 Z M 6 13 H 10 V 7 H 6 V 13 Z M 22 5.78 V 18.22 C 22 19.76 20.66 21 19 21 H 5 C 3.36 21 2 19.75 2 18.22 V 5.78 C 2 4.26 3.36 3 5 3 H 19 C 20.64 3 22 4.25 22 5.78 Z M 19.99 12 V 5.78 C 19.99 5.36 19.53 5 18.99 5 H 5 C 4.46 5 4 5.36 4 5.78 V 18.22 C 4 18.64 4.46 19 5 19 H 19 C 19.54 19 20 18.64 20 18.22 V 12 Z M 12 9 H 18 V 7 H 12 V 9 Z&quot;);caret-color:rgb(95, 99, 104);"/></svg>