<?xml version="1.0" standalone="no"?><!DOCTYPE svg PUBLIC "-//W3C//DTD SVG 1.1//EN" "http://www.w3.org/Graphics/SVG/1.1/DTD/svg11.dtd"><svg focusable="false" viewBox="0 0 24 24" version="1.1" xmlns="http://www.w3.org/2000/svg" xmlns:xlink="http://www.w3.org/1999/xlink" style="border-bottom-color:rgb(158, 158, 158);border-left-color:rgb(158, 158, 158);border-right-color:rgb(158, 158, 158);border-top-color:rgb(158, 158, 158);color:rgb(158, 158, 158);cursor:pointer;display:block;font-family:Roboto, arial, sans-serif;font-size:12px;height:16px;line-height:16px;outline-color:rgb(158, 158, 158);text-align:left;text-decoration:none solid rgb(158, 158, 158);text-decoration-color:rgb(158, 158, 158);width:16px;column-rule-color:rgb(158, 158, 158);-webkit-locale:&quot;en-US&quot;;perspective-origin:8px 8px;-webkit-text-emphasis-color:rgb(158, 158, 158);-webkit-text-fill-color:rgb(158, 158, 158);-webkit-text-stroke-color:rgb(158, 158, 158);transform-origin:8px 8px;fill:rgb(158, 158, 158);caret-color:rgb(158, 158, 158);"><path d="M12 2C6.48 2 2 6.48 2 12s4.48 10 10 10 10-4.48 10-10S17.52 2 12 2zm1 17h-2v-2h2v2zm2.07-7.75l-.9.92C13.45 12.9 13 13.5 13 15h-2v-.5c0-1.1.45-2.1 1.17-2.83l1.24-1.26c.37-.36.59-.86.59-1.41 0-1.1-.9-2-2-2s-2 .9-2 2H8c0-2.21 1.79-4 4-4s4 1.79 4 4c0 .88-.36 1.68-.93 2.25z" style="border-bottom-color:rgb(158, 158, 158);border-left-color:rgb(158, 158, 158);border-right-color:rgb(158, 158, 158);border-top-color:rgb(158, 158, 158);color:rgb(158, 158, 158);cursor:pointer;font-family:Roboto, arial, sans-serif;font-size:12px;height:auto;line-height:16px;outline-color:rgb(158, 158, 158);overflow-x:visible;overflow-y:visible;text-align:left;text-decoration:none solid rgb(158, 158, 158);text-decoration-color:rgb(158, 158, 158);width:auto;column-rule-color:rgb(158, 158, 158);-webkit-locale:&quot;en-US&quot;;perspective-origin:0px 0px;-webkit-text-emphasis-color:rgb(158, 158, 158);-webkit-text-fill-color:rgb(158, 158, 158);-webkit-text-stroke-color:rgb(158, 158, 158);transform-origin:0px 0px;fill:rgb(158, 158, 158);d:path(&quot;M 12 2 C 6.48 2 2 6.48 2 12 S 6.48 22 12 22 S 22 17.52 22 12 S 17.52 2 12 2 Z M 13 19 H 11 V 17 H 13 V 19 Z M 15.07 11.25 L 14.17 12.17 C 13.45 12.9 13 13.5 13 15 H 11 V 14.5 C 11 13.4 11.45 12.4 12.17 11.67 L 13.41 10.41 C 13.78 10.05 14 9.55 14 9 C 14 7.9 13.1 7 12 7 S 10 7.9 10 9 H 8 C 8 6.79 9.79 5 12 5 S 16 6.79 16 9 C 16 9.88 15.64 10.68 15.07 11.25 Z&quot;);caret-color:rgb(158, 158, 158);"/></svg>