<?xml version="1.0" standalone="no"?><!DOCTYPE svg PUBLIC "-//W3C//DTD SVG 1.1//EN" "http://www.w3.org/Graphics/SVG/1.1/DTD/svg11.dtd"><svg focusable="false" viewBox="0 0 24 24" version="1.1" xmlns="http://www.w3.org/2000/svg" xmlns:xlink="http://www.w3.org/1999/xlink" style="border-bottom-color:rgb(95, 99, 104);border-left-color:rgb(95, 99, 104);border-right-color:rgb(95, 99, 104);border-top-color:rgb(95, 99, 104);color:rgb(95, 99, 104);cursor:pointer;display:block;font-family:Roboto, arial, sans-serif;font-size:13px;height:16px;line-height:16px;outline-color:rgb(95, 99, 104);text-decoration:none solid rgb(95, 99, 104);text-decoration-color:rgb(95, 99, 104);white-space:nowrap;width:16px;column-rule-color:rgb(95, 99, 104);perspective-origin:8px 8px;-webkit-text-emphasis-color:rgb(95, 99, 104);-webkit-text-fill-color:rgb(95, 99, 104);-webkit-text-stroke-color:rgb(95, 99, 104);transform-origin:8px 8px;user-select:none;fill:rgb(95, 99, 104);caret-color:rgb(95, 99, 104);"><path clip-rule="evenodd" d="M10 16.5l6-4.5-6-4.5v9zM5 20h14a1 1 0 0 0 1-1V5a1 1 0 0 0-1-1H5a1 1 0 0 0-1 1v14a1 1 0 0 0 1 1zm14.5 2H5a3 3 0 0 1-3-3V4.4A2.4 2.4 0 0 1 4.4 2h15.2A2.4 2.4 0 0 1 22 4.4v15.1a2.5 2.5 0 0 1-2.5 2.5z" fill-rule="evenodd" style="border-bottom-color:rgb(95, 99, 104);border-left-color:rgb(95, 99, 104);border-right-color:rgb(95, 99, 104);border-top-color:rgb(95, 99, 104);color:rgb(95, 99, 104);cursor:pointer;font-family:Roboto, arial, sans-serif;font-size:13px;height:auto;line-height:16px;outline-color:rgb(95, 99, 104);overflow-x:visible;overflow-y:visible;text-decoration:none solid rgb(95, 99, 104);text-decoration-color:rgb(95, 99, 104);white-space:nowrap;width:auto;column-rule-color:rgb(95, 99, 104);perspective-origin:0px 0px;-webkit-text-emphasis-color:rgb(95, 99, 104);-webkit-text-fill-color:rgb(95, 99, 104);-webkit-text-stroke-color:rgb(95, 99, 104);transform-origin:0px 0px;user-select:none;clip-rule:evenodd;fill:rgb(95, 99, 104);fill-rule:evenodd;d:path(&quot;M 10 16.5 L 16 12 L 10 7.5 V 16.5 Z M 5 20 H 19 A 1 1 0 0 0 20 19 V 5 A 1 1 0 0 0 19 4 H 5 A 1 1 0 0 0 4 5 V 19 A 1 1 0 0 0 5 20 Z M 19.5 22 H 5 A 3 3 0 0 1 2 19 V 4.4 A 2.4 2.4 0 0 1 4.4 2 H 19.6 A 2.4 2.4 0 0 1 22 4.4 V 19.5 A 2.5 2.5 0 0 1 19.5 22 Z&quot;);caret-color:rgb(95, 99, 104);"/></svg>